<?xml version="1.0" standalone="no"?>
<!DOCTYPE svg PUBLIC "-//W3C//DTD SVG 20010904//EN"
 "http://www.w3.org/TR/2001/REC-SVG-20010904/DTD/svg10.dtd">
<svg version="1.0" xmlns="http://www.w3.org/2000/svg"
 width="645.000000pt" height="427.000000pt" viewBox="0 0 645.000000 427.000000"
 preserveAspectRatio="xMidYMid meet">

<g transform="translate(0.000000,427.000000) scale(0.100000,-0.100000)"
fill="#000000" stroke="none">
<path d="M0 2135 l0 -2135 3225 0 3225 0 0 2135 0 2135 -3225 0 -3225 0 0
-2135z m1868 729 c85 -17 208 -65 247 -96 l25 -19 0 -576 0 -576 -42 7 c-61
10 -107 35 -159 86 -61 61 -79 116 -79 242 0 108 -4 114 -54 75 -35 -28 -44
-90 -27 -181 15 -83 47 -143 106 -201 61 -62 125 -94 200 -102 l55 -6 0 -48 0
-49 -162 0 c-196 0 -272 14 -387 71 -122 60 -214 154 -274 280 -25 52 -51 121
-56 153 -7 35 -11 216 -11 443 l0 383 45 29 c140 89 381 125 573 85z m2675
-446 c14 -11 17 -43 20 -238 2 -124 7 -236 11 -250 6 -19 2 -33 -13 -50 l-20
-25 -41 22 c-41 22 -41 22 -73 3 -19 -12 -50 -20 -75 -20 -61 0 -105 44 -122
122 -25 110 5 205 80 256 29 20 43 23 83 18 l47 -5 0 89 0 90 43 0 c24 0 51
-6 60 -12z m221 -11 c13 -9 17 -23 14 -52 -3 -37 -6 -41 -40 -49 -59 -15 -88
3 -88 54 0 33 4 42 23 50 32 13 71 12 91 -3z m-2099 -20 c1 -1 37 -116 82
-255 l81 -253 -27 -11 c-16 -6 -40 -7 -61 -1 -30 7 -38 15 -55 60 l-20 53 -82
0 -82 0 -15 -54 c-14 -47 -20 -55 -46 -61 -24 -5 -91 1 -90 8 0 1 38 117 83
257 93 285 85 274 182 264 27 -3 50 -6 50 -7z m324 7 l31 -6 0 -258 0 -258
-36 -6 c-20 -4 -49 -4 -65 -1 l-29 7 0 258 0 259 23 4 c37 7 43 7 76 1z m438
-18 c40 -17 41 -19 32 -49 -15 -54 -29 -61 -83 -43 -58 20 -120 21 -136 1 -25
-30 -6 -50 95 -100 90 -45 102 -54 123 -95 12 -24 22 -56 22 -70 0 -49 -42
-112 -90 -138 -40 -21 -55 -23 -130 -20 -63 3 -97 10 -130 27 -25 13 -46 25
-48 26 -5 5 20 60 35 77 14 16 18 16 54 -3 83 -42 169 -34 169 16 0 32 -9 39
-110 88 -106 52 -134 88 -127 160 5 60 30 95 88 125 38 20 55 23 119 19 41 -2
94 -12 117 -21z m251 -68 l3 -58 45 0 45 0 -3 -42 c-3 -43 -3 -43 -46 -46
l-43 -3 3 -97 3 -97 35 -5 c33 -5 35 -7 38 -47 l3 -43 -80 0 c-74 0 -81 2
-100 26 -19 24 -21 40 -21 145 l0 118 -32 3 c-31 3 -33 6 -36 46 -3 42 -3 42
32 42 35 0 35 0 38 47 2 39 8 50 28 60 14 7 39 12 55 11 29 -3 30 -5 33 -60z
m255 -80 c14 -17 17 -40 17 -134 0 -125 6 -138 56 -116 24 11 24 14 24 141 l0
129 34 6 c19 4 46 4 60 0 l26 -6 0 -130 c0 -72 5 -148 11 -169 10 -32 9 -42
-5 -64 -14 -22 -23 -26 -44 -20 -15 4 -37 16 -49 27 l-21 20 -30 -22 c-16 -12
-47 -24 -70 -27 -37 -5 -45 -2 -76 29 -39 39 -44 62 -48 235 -3 113 -3 113 22
122 34 13 71 5 93 -21z m1198 9 c19 -12 44 -42 57 -67 20 -39 23 -56 19 -122
-4 -91 -33 -144 -92 -173 -49 -23 -144 -17 -183 11 -100 73 -96 283 7 351 26
18 48 23 96 23 48 0 70 -5 96 -23z m-362 -13 c19 -25 21 -40 21 -190 l0 -162
-30 -7 c-16 -4 -43 -4 -60 0 l-29 6 -3 142 c-3 139 -4 142 -25 145 -20 3 -23
9 -23 48 l0 44 64 0 c58 0 67 -3 85 -26z"/>
<path d="M1340 2503 c0 -139 3 -191 14 -211 63 -121 293 -185 478 -134 77 22
158 71 194 117 23 31 24 36 24 222 l0 190 -57 -9 c-126 -20 -214 -101 -257
-236 -13 -42 -27 -99 -31 -127 l-7 -50 -18 86 c-24 117 -63 200 -117 250 -52
47 -90 65 -167 77 l-56 9 0 -184z m190 -13 c24 -24 25 -48 4 -78 -30 -43 -104
-17 -104 36 0 56 61 81 100 42z m419 -7 c35 -43 7 -93 -51 -93 -33 0 -63 39
-53 69 17 55 71 67 104 24z"/>
<path d="M4375 2156 c-15 -11 -20 -30 -23 -84 -5 -79 8 -112 41 -112 39 0 47
19 47 107 0 71 -3 84 -19 93 -25 13 -23 13 -46 -4z"/>
<path d="M2559 2180 l-25 -100 52 0 53 0 -25 93 c-14 50 -26 95 -27 100 -1 4
-14 -38 -28 -93z"/>
<path d="M4999 2153 c-9 -10 -14 -42 -14 -93 0 -81 12 -110 46 -110 37 0 49
27 49 110 0 58 -4 83 -16 94 -20 21 -48 20 -65 -1z"/>
</g>
</svg>
